<svg width="0" height="0" class="hidden">
  <symbol viewBox="0 0 24 24" xmlns="http://www.w3.org/2000/svg" id="add-accaunt">
    <path fill="#5f6368" d="M9 12c2.21 0 4-1.79 4-4s-1.79-4-4-4-4 1.79-4 4 1.79 4 4 4zm0-6c1.1 0 2 .9 2 2s-.9 2-2 2-2-.9-2-2 .9-2 2-2zm0 7c-2.67 0-8 1.34-8 4v3h16v-3c0-2.66-5.33-4-8-4zm6 5H3v-.99C3.2 16.29 6.3 15 9 15s5.8 1.29 6 2v1zm3-4v-3h-3V9h3V6h2v3h3v2h-3v3h-2z"></path>
  </symbol>
  <symbol xmlns="http://www.w3.org/2000/svg" viewBox="0 0 48 48" id="add">
    <path d="M38 26H26v12h-4V26H10v-4h12V10h4v12h12v4z"></path>
    <path d="M0 0h48v48H0z" fill="none"></path>
  </symbol>
  <symbol xmlns="http://www.w3.org/2000/svg" viewBox="0 0 122.88 107.68" id="addlink">
    <title>add-link</title>
    <path d="M97.62 40.71A25.26 25.26 0 1 1 72.37 66a25.25 25.25 0 0 1 25.25-25.29zM51 31.51a5.35 5.35 0 0 1-7.57-7.57L60.79 6.62c5-5 12-7 19-6.56a30.61 30.61 0 0 1 19.37 8.5 30.61 30.61 0 0 1 8.5 19.37 28.07 28.07 0 0 1-.28 6.29 33.23 33.23 0 0 0-9.72-1.44h-.88A17.64 17.64 0 0 0 97 28.6a19.71 19.71 0 0 0-5.41-12.47 19.69 19.69 0 0 0-12.47-5.41c-4.08-.25-8 .8-10.72 3.47L51 31.51zm12.8 4.81a5.35 5.35 0 0 1 7.56 7.57L43.88 71.36a5.35 5.35 0 0 1-7.56-7.56L63.8 36.32zm-7.33 40a5.35 5.35 0 1 1 7.53 7.6l-17.11 17.15c-5 5-12 7-19 6.55a30.64 30.64 0 0 1-19.37-8.5A30.61 30.61 0 0 1 .06 79.75c-.44-7 1.56-14 6.56-19l17.14-17.11a5.35 5.35 0 1 1 7.57 7.57L14.19 68.36C11.52 71 10.47 75 10.72 79.08a19.69 19.69 0 0 0 5.41 12.47A19.71 19.71 0 0 0 28.6 97c4.08.26 8-.79 10.72-3.46l17.15-17.19zm55.07-13.07v5.36a2 2 0 0 1-2 2h-7.28v7.29a2 2 0 0 1-2 2h-5.32a2 2 0 0 1-2-2v-7.28h-7.26a2 2 0 0 1-2-2v-5.34a2 2 0 0 1 2-2H93V54a2 2 0 0 1 2-2h5.36a2 2 0 0 1 2 2v7.3h7.28a2 2 0 0 1 2 2z"></path>
  </symbol>
  <symbol xmlns="http://www.w3.org/2000/svg" viewBox="0 0 24 24" id="archive">
    <path d="M20.54 5.23l-1.39-1.68C18.88 3.21 18.47 3 18 3H6c-.47 0-.88.21-1.16.55L3.46 5.23C3.17 5.57 3 6.02 3 6.5V19c0 1.1.9 2 2 2h14c1.1 0 2-.9 2-2V6.5c0-.48-.17-.93-.46-1.27zM6.24 5h11.52l.83 1H5.42l.82-1zM5 19V8h14v11H5zm11-5.5l-4 4-4-4 1.41-1.41L11 13.67V10h2v3.67l1.59-1.59L16 13.5z"></path>
  </symbol>
  <symbol xmlns="http://www.w3.org/2000/svg" viewBox="0 0 24 24" id="back">
    <path d="M14.1 8H7.83l2.59-2.59L9 4 4 9l5 5 1.41-1.41L7.83 10h6.27c2.15 0 3.9 1.57 3.9 3.5S16.25 17 14.1 17H7v2h7.1c3.25 0 5.9-2.47 5.9-5.5S17.35 8 14.1 8z"></path>
  </symbol>
  <symbol xmlns="http://www.w3.org/2000/svg" viewBox="0 0 24 24" id="basket">
    <path d="M15 4V3H9v1H4v2h1v13c0 1.1.9 2 2 2h10c1.1 0 2-.9 2-2V6h1V4h-5zm2 15H7V6h10v13z"></path>
    <path d="M9 8h2v9H9zm4 0h2v9h-2z"></path>
  </symbol>
  <symbol xmlns="http://www.w3.org/2000/svg" viewBox="0 0 24 24" id="box">
    <path d="M19 5v14H5V5h14m0-2H5c-1.1 0-2 .9-2 2v14c0 1.1.9 2 2 2h14c1.1 0 2-.9 2-2V5c0-1.1-.9-2-2-2z"></path>
  </symbol>
  <symbol viewBox="0 0 24 24" id="burger">
    <path fill="#5f6368" d="M3 18h18v-2H3v2zm0-5h18v-2H3v2zm0-7v2h18V6H3z"></path>
  </symbol>
  <symbol version="1" xmlns="http://www.w3.org/2000/svg" viewBox="0 0 980 848" id="cloud">
    <g fill="#5f6368">
      <path d="M517.6 2.6c-28 4.3-61.9 15.4-89 29.1-33.3 16.7-69 44.5-90.4 70.4-4.3 5.2-8.1 8.9-9.6 9.3-1.7.4-8.1-1.2-19.5-4.9-23.5-7.6-31.4-8.8-53.1-8.2-15.3.4-19 .8-29 3.5-42.7 11.1-77.4 38.9-97.3 78-10.5 20.5-14.7 35.8-15.6 56.6l-.6 13.9-11.1 7.6c-20.6 14.2-35.1 27.2-49.9 45.1-22.9 27.7-41.9 65.4-48.6 96.5-4.6 21.8-5.1 64.1-.9 83.8 17.3 81.4 85.3 148.9 166.2 165.1 11 2.2 21.6 3.6 38.8 4.9 5.4.5 5.6.4 9.9-4 7.3-7.6 8.9-14.3 4.9-20.3-4.3-6.3-6.1-6.9-24.1-9-28.7-3.4-47-8.3-68.4-18.5-42.8-20.3-74.7-56.9-89.7-102.7-6.4-19.6-8.1-30.6-8.1-54.3 0-22 .7-27.9 5.2-46 8.5-34.3 26.5-64.4 54.4-91 15.3-14.5 34.5-27.9 48.3-33.4l5.3-2.2.7-19c1.1-28.5 4.4-44.5 12.7-61.1 13.9-27.8 40.2-49 70.6-56.7 16.7-4.3 40.1-4.9 56.5-1.5 32.4 6.6 64.1 32.3 78.8 63.7 5.4 11.5 7.8 21.1 9.3 37.4 1.5 15.9 3.2 20.5 8.7 23.5 5.2 2.7 12.8 2.4 17-.7 6.6-4.9 7.4-7.2 6.7-20-1.9-35.7-16.3-67.7-43.3-96.4-4.2-4.5-7.4-8.7-7.1-9.4 1.1-2.9 23.3-27.1 31.7-34.5 49.4-43.7 111.1-66 177-63.9 64.2 2 119.8 26.7 165.1 73.3 30.2 31.1 50.4 66.8 61.4 108.7 3 11.3 7.5 35.7 7.5 40.8 0 1.4-2.9 1.7-23.2 2.3-30.6.9-42.1 2.1-47.8 4.9-7.8 3.8-11.2 13.4-7.5 21.2 1.5 3 3.1 4.3 8 6.1 1.1.4 19.8 1 41.5 1.5 42.2.8 49.8 1.5 64 6.4 9.3 3.2 28.3 12.3 37 17.7 42.5 26.6 71 73.4 75 123.1 2.7 32.2-2.2 62.1-14.5 88.2-20.4 43.6-58.2 74.6-106 86.8-12.1 3.1-13.8 3.4-32.6 5.6-17.1 2.1-20.3 3.5-23.7 10.1-3.8 7.4-1.1 15.1 7.2 20.4 4.6 3 8.1 3.2 23.4 1.5 62-6.7 117.8-41.6 150.3-93.9 26.9-43.4 35.8-91.6 25.8-140.4-4.2-20.4-14-44.5-25.7-63.3-24.2-39.1-64.7-72.3-104.7-85.9-6-2-11.4-4-11.8-4.4-.5-.4-1.5-6.1-2.3-12.6-8-64.8-36-121.7-83.2-169.2C724.9 58.9 701 41.5 673.5 28c-29.1-14.4-58.7-23.3-85.9-25.9-15.6-1.6-59-1.2-70 .5z"></path>
      <path d="M465.6 428.5c-79.1 18.1-139.5 73.2-163 148.7-4.6 14.6-6.4 25.3-7.8 46.5-2.5 37.6 3 67.2 18.6 99.8 22 46 58 82.4 102.6 103.9 15.3 7.3 26.1 11.3 43.5 15.9l12 3.2h69l13.6-3.7c57.2-15.5 103.5-49.7 133.5-98.8 9.8-16.2 19.4-38.5 23.8-55.8 4.9-19 7.2-44.9 5.6-65.5-2.3-30.6-7.6-50.8-20-76.2-27.1-55.2-76.7-97.2-134.5-114-15-4.3-26.7-5.6-57.5-6-27.6-.5-28.8-.4-39.4 2zm57.8 29.5c38.9 3.7 71.9 17.5 100.3 41.9 23.2 19.9 43.8 51.1 53.6 81.1 5.8 17.9 6.2 21.3 6.2 56.5 0 35.5-.3 38.1-7.2 58-18.8 54.3-59.1 93.7-114.7 112-19.6 6.5-31.7 7.9-62.1 7.2-26.5-.6-32.4-1.5-50-7.3-38.7-12.7-71.1-36.9-93-69.4-11.4-16.9-22.1-41.9-25.9-60.1-4.2-20.8-4.7-61.8-.8-79.4 10.8-48.6 39.2-89.1 80.4-114.7 32.7-20.3 73.2-29.6 113.2-25.8z"></path>
      <path d="M598.4 541.4c-1.6.7-4.6 3.2-6.5 5.4-4.8 5.6-28.9 39.5-62.4 87.7-15.3 22-28.5 40.8-29.4 41.7-1.5 1.5-3.4.2-26.6-18.9-38.1-31.2-43.8-35.3-48.7-35.3-8.6 0-16.8 8-16.8 16.2 0 4.8 3.5 9.3 14.7 19 26.3 22.7 67.7 55.5 75 59.2 7.1 3.6 10.8 1.6 20.5-11.1 27.9-36.6 92.2-129.4 98.1-141.5 4.2-8.7 4.4-11.2 1.4-15.7-2.7-4.1-9.6-8.1-13.8-8.1-1.3.1-3.8.7-5.5 1.4z"></path>
    </g>
  </symbol>
  <symbol xmlns="http://www.w3.org/2000/svg" viewBox="0 0 24 24" id="color-picer">
    <path d="M12 22C6.49 22 2 17.51 2 12S6.49 2 12 2s10 4.04 10 9c0 3.31-2.69 6-6 6h-1.77c-.28 0-.5.22-.5.5 0 .12.05.23.13.33.41.47.64 1.06.64 1.67A2.5 2.5 0 0 1 12 22zm0-18c-4.41 0-8 3.59-8 8s3.59 8 8 8c.28 0 .5-.22.5-.5a.54.54 0 0 0-.14-.35c-.41-.46-.63-1.05-.63-1.65a2.5 2.5 0 0 1 2.5-2.5H16c2.21 0 4-1.79 4-4 0-3.86-3.59-7-8-7z"></path>
    <circle cx="6.5" cy="11.5" r="1.5"></circle>
    <circle cx="9.5" cy="7.5" r="1.5"></circle>
    <circle cx="14.5" cy="7.5" r="1.5"></circle>
    <circle cx="17.5" cy="11.5" r="1.5"></circle>
  </symbol>
  <symbol xmlns="http://www.w3.org/2000/svg" viewBox="0 0 24 24" id="default-color">
    <path d="M21.19 21.19l-3.06-3.06-1.43-1.43-8.3-8.3L7 7 2.81 2.81 1.39 4.22l4.25 4.25A8.056 8.056 0 0 0 4.01 13H4c0 4.42 3.58 8 8 8 1.74 0 3.35-.57 4.66-1.51l3.12 3.12 1.41-1.42zM12 19c-3.22 0-5.86-2.55-5.99-5.74l.01-.19c.04-1.14.42-2.25 1.06-3.18l8.16 8.16c-.95.6-2.05.95-3.24.95zm0-14.17l4.25 4.24a6.014 6.014 0 0 1 1.74 4.01l.01.17c-.02.56-.13 1.11-.3 1.62l1.53 1.53c.49-1.03.77-2.18.77-3.4h-.01a7.975 7.975 0 0 0-2.33-5.35L12 2 8.41 5.58 9.83 7 12 4.83z"></path>
  </symbol>
  <symbol xmlns="http://www.w3.org/2000/svg" viewBox="0 0 24 24" id="delete-forever">
    <path fill="none" d="M0 0h24v24H0V0z"></path>
    <path d="M6 19c0 1.1.9 2 2 2h8c1.1 0 2-.9 2-2V7H6v12zm2.46-7.12l1.41-1.41L12 12.59l2.12-2.12 1.41 1.41L13.41 14l2.12 2.12-1.41 1.41L12 15.41l-2.12 2.12-1.41-1.41L10.59 14l-2.13-2.12zM15.5 4l-1-1h-5l-1 1H5v2h14V4z"></path>
    <path fill="none" d="M0 0h24v24H0z"></path>
  </symbol>
  <symbol xmlns="http://www.w3.org/2000/svg" viewBox="0 0 48 48" id="delete">
    <path d="M12 38c0 2.21 1.79 4 4 4h16c2.21 0 4-1.79 4-4V14H12v24zM38 8h-7l-2-2H19l-2 2h-7v4h28V8z"></path>
    <path d="M0 0h48v48H0z" fill="none"></path>
  </symbol>
  <symbol xmlns="http://www.w3.org/2000/svg" viewBox="0 0 18 18" id="done">
    <path d="M0 0h18v18H0z" fill="none"></path>
    <path d="M6.61 11.89L3.5 8.78 2.44 9.84 6.61 14l8.95-8.95L14.5 4z"></path>
  </symbol>
  <symbol xmlns="http://www.w3.org/2000/svg" viewBox="0 0 24 24" id="dowland">
    <path d="M20.54 5.23l-1.39-1.68C18.88 3.21 18.47 3 18 3H6c-.47 0-.88.21-1.16.55L3.46 5.23C3.17 5.57 3 6.02 3 6.5V19c0 1.1.9 2 2 2h14c1.1 0 2-.9 2-2V6.5c0-.48-.17-.93-.46-1.27zM6.24 5h11.52l.83 1H5.42l.82-1zM5 19V8h14v11H5zm11-5.5l-4 4-4-4 1.41-1.41L11 13.67V10h2v3.67l1.59-1.59L16 13.5z"></path>
  </symbol>
  <symbol xmlns="http://www.w3.org/2000/svg" viewBox="0 0 24 24" id="edit-bordered">
    <path d="M19 3H5c-1.1 0-2 .9-2 2v14c0 1.1.9 2 2 2h14c1.1 0 2-.9 2-2V5c0-1.1-.9-2-2-2zm0 16H5V5h14v14z"></path>
    <path d="M18 9l-1.4-1.4-6.6 6.6-2.6-2.6L6 13l4 4z"></path>
  </symbol>
  <symbol xmlns="http://www.w3.org/2000/svg" viewBox="0 0 24 24" id="edit">
    <path d="M20.41 4.94l-1.35-1.35c-.78-.78-2.05-.78-2.83 0L13.4 6.41 3 16.82V21h4.18l10.46-10.46 2.77-2.77c.79-.78.79-2.05 0-2.83zm-14 14.12L5 19v-1.36l9.82-9.82 1.41 1.41-9.82 9.83z"></path>
  </symbol>
  <symbol xmlns="http://www.w3.org/2000/svg" id="error">
    <circle fill="#f44336" cx="8" cy="8" r="7"></circle>
    <path fill="#fff" d="M12.212 10.826l-1.414 1.414-7.072-7.071 1.415-1.414z"></path>
    <path fill="#fff" d="M5.148 12.233l-1.414-1.414 7.07-7.071 1.415 1.414z"></path>
  </symbol>
  <symbol xmlns="http://www.w3.org/2000/svg" viewBox="0 0 18 18" id="exit">
    <path d="M0 0h18v18H0zh18v18H0z" fill="none"></path>
    <path d="M14.53 4.53l-1.06-1.06L9 7.94 4.53 3.47 3.47 4.53 7.94 9l-4.47 4.47 1.06 1.06L9 10.06l4.47 4.47 1.06-1.06L10.06 9z"></path>
  </symbol>
  <symbol xmlns="http://www.w3.org/2000/svg" viewBox="0 0 48 48" id="filled-label">
    <path d="M0 0h48v48H0z" fill="none"></path>
    <path d="M35.27 11.69A4.015 4.015 0 0 0 32 10l-22 .02c-2.21 0-4 1.77-4 3.98v20c0 2.21 1.79 3.98 4 3.98L32 38c1.35 0 2.54-.67 3.27-1.69L44 24l-8.73-12.31z"></path>
  </symbol>
  <symbol xmlns="http://www.w3.org/2000/svg" viewBox="0 0 24 24" id="label">
    <path d="M17.63 5.84C17.27 5.33 16.67 5 16 5L5 5.01C3.9 5.01 3 5.9 3 7v10c0 1.1.9 1.99 2 1.99L16 19c.67 0 1.27-.33 1.63-.84L22 12l-4.37-6.16zM16 17H5V7h11l3.55 5L16 17z"></path>
  </symbol>
  <symbol viewBox="0 0 24 24" xmlns="http://www.w3.org/2000/svg" xmlns:xlink="http://www.w3.org/1999/xlink" id="grid">
    <defs>
      <path d="M3 3h7c.55 0 1 .45 1 1v6c0 .55-.45 1-1 1H3c-.55 0-1-.45-1-1V4c0-.55.45-1 1-1zm0 10h7c.55 0 1 .45 1 1v6c0 .55-.45 1-1 1H3c-.55 0-1-.45-1-1v-6c0-.55.45-1 1-1zM14 3h7c.55 0 1 .45 1 1v6c0 .55-.45 1-1 1h-7c-.55 0-1-.45-1-1V4c0-.55.45-1 1-1zm0 10h7c.55 0 1 .45 1 1v6c0 .55-.45 1-1 1h-7c-.55 0-1-.45-1-1v-6c0-.55.45-1 1-1zM9 9V5H4v4h5zm0 10v-4H4v4h5zM20 9V5h-5v4h5zm0 10v-4h-5v4h5z" id="a"></path>
    </defs>
    <g fill="none" fill-rule="evenodd">
      <path d="M0 0h24v24H0z"></path>
      <use fill="#5f6368" fill-rule="nonzero" xlink:href="#a"></use>
    </g>
  </symbol>
  <symbol viewBox="0 0 24 24" xmlns="http://www.w3.org/2000/svg" id="grid2">
    <g fill="none" fill-rule="evenodd">
      <path d="M0 0h24v24H0z"></path>
      <path d="M20 9H4V5h16v4zm0 10H4v-4h16v4zM3 3c-.55 0-1 .45-1 1v6c0 .55.45 1 1 1h18c.55 0 1-.45 1-1V4c0-.55-.45-1-1-1H3zm0 10c-.55 0-1 .45-1 1v6c0 .55.45 1 1 1h18c.55 0 1-.45 1-1v-6c0-.55-.45-1-1-1H3z" fill="#5f6368" fill-rule="nonzero"></path>
    </g>
  </symbol>
  <symbol version="1" xmlns="http://www.w3.org/2000/svg" viewBox="0 0 225 225" id="grid3">
    <path d="M40.5 40.5c-2.4 2.3-2.5 2.9-2.5 15.9v13.4l3.2 2.7c3.1 2.6 3.3 2.6 15.9 2.3 17.4-.4 17.3-.3 17.7-17.7.3-12.6.3-12.8-2.3-15.9L69.8 38H56.4c-13 0-13.6.1-15.9 2.5zm56 .1c-2.4 2.6-2.5 3.3-2.5 15.6v13l2.9 2.9c2.9 2.9 2.9 2.9 15.6 2.9s12.7 0 15.6-2.9l2.9-2.9v-13c0-12.3-.1-13-2.5-15.6-2.4-2.6-2.6-2.6-16-2.6s-13.6 0-16 2.6zm56 .6c-2.6 3.1-2.6 3.3-2.3 15.9.4 17.4.3 17.3 17.7 17.7 12.6.3 12.8.3 15.9-2.3l3.2-2.7V56.4c0-13-.1-13.6-2.5-15.9-2.3-2.4-2.9-2.5-15.9-2.5h-13.4l-2.7 3.2zM40.6 96.5c-2.6 2.4-2.6 2.6-2.6 16s0 13.6 2.6 16c2.6 2.4 3.3 2.5 15.6 2.5h13l2.9-2.9c2.9-2.9 2.9-2.9 2.9-15.6s0-12.7-2.9-15.6L69.2 94h-13c-12.3 0-13 .1-15.6 2.5zm56.3.4C94 99.8 94 99.8 94 112.5s0 12.7 2.9 15.6c2.9 2.9 2.9 2.9 15.6 2.9s12.7 0 15.6-2.9c2.9-2.9 2.9-2.9 2.9-15.6s0-12.7-2.9-15.6c-2.9-2.9-2.9-2.9-15.6-2.9s-12.7 0-15.6 2.9zm56 0c-2.9 2.9-2.9 2.9-2.9 15.6s0 12.7 2.9 15.6l2.9 2.9h13c12.3 0 13-.1 15.6-2.5 2.6-2.4 2.6-2.6 2.6-16s0-13.6-2.6-16c-2.6-2.4-3.3-2.5-15.6-2.5h-13l-2.9 2.9zM41.2 152.5l-3.2 2.7v13.4c0 13 .1 13.6 2.5 15.9 2.3 2.4 2.9 2.5 15.9 2.5h13.4l2.7-3.2c2.6-3.1 2.6-3.3 2.3-15.9-.4-17.4-.3-17.3-17.7-17.7-12.6-.3-12.8-.3-15.9 2.3zm55.7.4l-2.9 2.9v13c0 12.3.1 13 2.5 15.6 2.4 2.6 2.6 2.6 16 2.6s13.6 0 16-2.6c2.4-2.6 2.5-3.3 2.5-15.6v-13l-2.9-2.9c-2.9-2.9-2.9-2.9-15.6-2.9s-12.7 0-15.6 2.9zm58.1-1.6c-4.1 2.1-5 5.2-5 17.9 0 11.1.1 11.8 2.6 14.7l2.6 3.1h13.4c13 0 13.6-.1 15.9-2.5 2.4-2.3 2.5-2.9 2.5-15.9v-13.4l-3.1-2.6c-2.9-2.5-3.6-2.6-14.7-2.6-7.4 0-12.6.5-14.2 1.3z" fill="#5f6368"></path>
  </symbol>
  <symbol viewBox="0 0 24 24" xmlns="http://www.w3.org/2000/svg" id="grid4">
    <g fill="none" fill-rule="evenodd">
      <path d="M0 0h24v24H0z"></path>
      <path d="M20 9H4V5h16v4zm0 10H4v-4h16v4zM3 3c-.55 0-1 .45-1 1v6c0 .55.45 1 1 1h18c.55 0 1-.45 1-1V4c0-.55-.45-1-1-1H3zm0 10c-.55 0-1 .45-1 1v6c0 .55.45 1 1 1h18c.55 0 1-.45 1-1v-6c0-.55-.45-1-1-1H3z" fill="#5f6368" fill-rule="nonzero"></path>
    </g>
  </symbol>
  <symbol xmlns="http://www.w3.org/2000/svg" viewBox="0 0 24 24" id="img">
    <path d="M19 3H5c-1.1 0-2 .9-2 2v14c0 1.1.9 2 2 2h14c1.1 0 2-.9 2-2V5c0-1.1-.9-2-2-2zm0 16H5V5h14v14zm-5-7l-3 3.72L9 13l-3 4h12l-4-5z"></path>
  </symbol>
  <symbol xmlns="http://www.w3.org/2000/svg" viewBox="0 0 24 24" id="labels">
    <path d="M20.41 4.94l-1.35-1.35c-.78-.78-2.05-.78-2.83 0L13.4 6.41 3 16.82V21h4.18l10.46-10.46 2.77-2.77c.79-.78.79-2.05 0-2.83zm-14 14.12L5 19v-1.36l9.82-9.82 1.41 1.41-9.82 9.83z"></path>
  </symbol>
  <symbol xmlns="http://www.w3.org/2000/svg" viewBox="0 0 14 14" fill="ffffff" id="link">
    <g fill-rule="evenodd" fill="none">
      <path d="M0 0h14v14H0z"></path>
      <path d="M3 11V3h4V2H3.111A1.11 1.11 0 0 0 2 3.111v7.778A1.11 1.11 0 0 0 3.111 12h7.778A1.11 1.11 0 0 0 12 10.889V7h-1v4H3zm5.3-8h1.895L5 8.252 5.748 9 11 3.8v1.9h1V2H8.3v1z" fill="#fff"></path>
    </g>
  </symbol>
  <symbol xmlns="http://www.w3.org/2000/svg" viewBox="0 0 24 24" fill="#5f6368" id="loading">
    <path d="M13 9v2h7V4h-2v2.74C16.53 5.07 14.4 4 12 4c-2.21 0-4.21.9-5.66 2.34S4 9.79 4 12c0 4.42 3.58 8 8 8 2.21 0 4.21-.9 5.66-2.34l-1.42-1.42A5.98 5.98 0 0 1 12 18c-3.31 0-6-2.69-6-6 0-1.65.67-3.15 1.76-4.24A5.98 5.98 0 0 1 12 6a6.01 6.01 0 0 1 5.19 3H13z"></path>
  </symbol>
  <symbol xmlns="http://www.w3.org/2000/svg" viewBox="0 0 24 24" id="notes">
    <path d="M9 21c0 .55.45 1 1 1h4c.55 0 1-.45 1-1v-1H9v1zm3-19C8.14 2 5 5.14 5 9c0 2.38 1.19 4.47 3 5.74V17c0 .55.45 1 1 1h6c.55 0 1-.45 1-1v-2.26c1.81-1.27 3-3.36 3-5.74 0-3.86-3.14-7-7-7zm2.85 11.1l-.85.6V16h-4v-2.3l-.85-.6A4.997 4.997 0 0 1 7 9c0-2.76 2.24-5 5-5s5 2.24 5 5c0 1.63-.8 3.16-2.15 4.1z"></path>
  </symbol>
  <symbol xmlns="http://www.w3.org/2000/svg" viewBox="0 0 24 24" id="notification-add">
    <path d="M13 9h-2v2H9v2h2v2h2v-2h2v-2h-2z"></path>
    <path d="M18 17v-6c0-3.07-1.63-5.64-4.5-6.32V4c0-.83-.67-1.5-1.5-1.5s-1.5.67-1.5 1.5v.68C7.64 5.36 6 7.92 6 11v6H4v2h16v-2h-2zm-2 0H8v-6c0-2.48 1.51-4.5 4-4.5s4 2.02 4 4.5v6zm-4 5c1.1 0 2-.9 2-2h-4c0 1.1.9 2 2 2z"></path>
  </symbol>
  <symbol xmlns="http://www.w3.org/2000/svg" viewBox="0 0 24 24" id="notification">
    <path d="M18 17v-6c0-3.07-1.63-5.64-4.5-6.32V4c0-.83-.67-1.5-1.5-1.5s-1.5.67-1.5 1.5v.68C7.64 5.36 6 7.92 6 11v6H4v2h16v-2h-2zm-2 0H8v-6c0-2.48 1.51-4.5 4-4.5s4 2.02 4 4.5v6zm-4 5c1.1 0 2-.9 2-2h-4c0 1.1.9 2 2 2z"></path>
  </symbol>
  <symbol xmlns="http://www.w3.org/2000/svg" viewBox="0 0 18 18" id="other">
    <path d="M9 5.5c1 0 1.8-.8 1.8-1.8S10 2 9 2s-1.8.8-1.8 1.8S8 5.5 9 5.5zm0 1.7C8 7.2 7.2 8 7.2 9S8 10.8 9 10.8s1.8-.8 1.8-1.8S10 7.2 9 7.2zm0 5.3c-1 0-1.8.8-1.8 1.8S8 16 9 16s1.8-.8 1.8-1.8-.8-1.7-1.8-1.7z"></path>
  </symbol>
  <symbol xmlns="http://www.w3.org/2000/svg" viewBox="0 0 24 24" id="pen">
    <path d="M18.64 4.75L20 6.11l-7.79 7.79-1.36-1.36 7.79-7.79m0-2c-.51 0-1.02.2-1.41.59l-7.79 7.79c-.78.78-.78 2.05 0 2.83l1.36 1.36c.39.39.9.59 1.41.59.51 0 1.02-.2 1.41-.59l7.79-7.79c.78-.78.78-2.05 0-2.83l-1.35-1.35c-.39-.4-.9-.6-1.42-.6zM7 14.25c-1.66 0-3 1.34-3 3 0 1.31-1.16 2-2 2 .92 1.22 2.49 2 4 2 2.21 0 4-1.79 4-4 0-1.66-1.34-3-3-3z"></path>
  </symbol>
  <symbol viewBox="0 0 24 24" xmlns="http://www.w3.org/2000/svg" id="picture">
    <path fill="#5f6368" d="M20 5h-3.17L15 3H9L7.17 5H4c-1.1 0-2 .9-2 2v12c0 1.1.9 2 2 2h16c1.1 0 2-.9 2-2V7c0-1.1-.9-2-2-2zm0 14H4V7h16v12zM12 9c-2.21 0-4 1.79-4 4s1.79 4 4 4 4-1.79 4-4-1.79-4-4-4z"></path>
  </symbol>
  <symbol xmlns="http://www.w3.org/2000/svg" viewBox="0 0 24 24" id="pin-black">
    <path fill="none" d="M0 0h24v24H0z"></path>
    <path d="M17 4a2 2 0 0 0-2-2H9c-1.1 0-2 .9-2 2v7l-2 3v2h6v5l1 1 1-1v-5h6v-2l-2-3V4z"></path>
  </symbol>
  <symbol xmlns="http://www.w3.org/2000/svg" viewBox="0 0 24 24" id="pin">
    <path fill="none" d="M0 0h24v24H0z"></path>
    <path d="M17 4v7l2 3v2h-6v5l-1 1-1-1v-5H5v-2l2-3V4c0-1.1.9-2 2-2h6c1.11 0 2 .89 2 2zM9 4v7.75L7.5 14h9L15 11.75V4H9z"></path>
  </symbol>
  <symbol viewBox="0 0 24 24" xmlns="http://www.w3.org/2000/svg" id="remove">
    <path d="M19 6.41L17.59 5 12 10.59 6.41 5 5 6.41 10.59 12 5 17.59 6.41 19 12 13.41 17.59 19 19 17.59 13.41 12z"></path>
    <path d="M0 0h24v24H0z" fill="none"></path>
  </symbol>
  <symbol xmlns="http://www.w3.org/2000/svg" viewBox="0 0 24 24" id="restore">
    <path d="M19 4h-3.5l-1-1h-5l-1 1H5v2h14zM6 7v12c0 1.1.9 2 2 2h8c1.1 0 2-.9 2-2V7H6zm8 7v4h-4v-4H8l4-4 4 4h-2z"></path>
    <path fill="none" d="M0 0h24v24H0z"></path>
  </symbol>
  <symbol viewBox="0 0 24 24" xmlns="http://www.w3.org/2000/svg" id="search">
    <path d="M20.49 19l-5.73-5.73C15.53 12.2 16 10.91 16 9.5A6.5 6.5 0 1 0 9.5 16c1.41 0 2.7-.47 3.77-1.24L19 20.49 20.49 19zM5 9.5C5 7.01 7.01 5 9.5 5S14 7.01 14 9.5 11.99 14 9.5 14 5 11.99 5 9.5z"></path>
    <path d="M0 0h24v24H0V0z" fill="none"></path>
  </symbol>
  <symbol xmlns="http://www.w3.org/2000/svg" viewBox="0 0 24 24" fill="#5f6368" id="setting">
    <path d="M13.85 22.25h-3.7c-.74 0-1.36-.54-1.45-1.27l-.27-1.89c-.27-.14-.53-.29-.79-.46l-1.8.72c-.7.26-1.47-.03-1.81-.65L2.2 15.53c-.35-.66-.2-1.44.36-1.88l1.53-1.19c-.01-.15-.02-.3-.02-.46 0-.15.01-.31.02-.46l-1.52-1.19c-.59-.45-.74-1.26-.37-1.88l1.85-3.19c.34-.62 1.11-.9 1.79-.63l1.81.73c.26-.17.52-.32.78-.46l.27-1.91c.09-.7.71-1.25 1.44-1.25h3.7c.74 0 1.36.54 1.45 1.27l.27 1.89c.27.14.53.29.79.46l1.8-.72c.71-.26 1.48.03 1.82.65l1.84 3.18c.36.66.2 1.44-.36 1.88l-1.52 1.19c.01.15.02.3.02.46s-.01.31-.02.46l1.52 1.19c.56.45.72 1.23.37 1.86l-1.86 3.22c-.34.62-1.11.9-1.8.63l-1.8-.72c-.26.17-.52.32-.78.46l-.27 1.91c-.1.68-.72 1.22-1.46 1.22zm-3.23-2h2.76l.37-2.55.53-.22c.44-.18.88-.44 1.34-.78l.45-.34 2.38.96 1.38-2.4-2.03-1.58.07-.56c.03-.26.06-.51.06-.78s-.03-.53-.06-.78l-.07-.56 2.03-1.58-1.39-2.4-2.39.96-.45-.35c-.42-.32-.87-.58-1.33-.77l-.52-.22-.37-2.55h-2.76l-.37 2.55-.53.21c-.44.19-.88.44-1.34.79l-.45.33-2.38-.95-1.39 2.39 2.03 1.58-.07.56a7 7 0 0 0-.06.79c0 .26.02.53.06.78l.07.56-2.03 1.58 1.38 2.4 2.39-.96.45.35c.43.33.86.58 1.33.77l.53.22.38 2.55z"></path>
    <circle cx="12" cy="12" r="3.5"></circle>
  </symbol>
  <symbol xmlns="http://www.w3.org/2000/svg" id="success">
    <path d="M8 1a7 7 0 1 0 0 14A7 7 0 0 0 8 1zm3.313 3.063l1.562 1.406-5.25 6.937-4.063-3.5 1.344-1.781 2.375 2.063 4.032-5.126z" color="#000" fill="#4e9a06" overflow="visible"></path>
  </symbol>
  <symbol xmlns="http://www.w3.org/2000/svg" viewBox="0 0 24 24" id="user-add">
    <path d="M9 12c2.21 0 4-1.79 4-4s-1.79-4-4-4-4 1.79-4 4 1.79 4 4 4zm0-6c1.1 0 2 .9 2 2s-.9 2-2 2-2-.9-2-2 .9-2 2-2zm0 7c-2.67 0-8 1.34-8 4v3h16v-3c0-2.66-5.33-4-8-4zm6 5H3v-.99C3.2 16.29 6.3 15 9 15s5.8 1.29 6 2v1zm3-4v-3h-3V9h3V6h2v3h3v2h-3v3h-2z"></path>
  </symbol>
  <symbol version="1" xmlns="http://www.w3.org/2000/svg" viewBox="0 0 512 512" id="user">
    <path d="M235.9 21.5c-22.2 3.5-40.2 10.3-57.8 22-34.7 22.9-56.2 55.9-63.2 96.7-1.8 10.3-2 14.8-1.6 27.8.6 16 2.1 24.7 6.4 38.5 9.4 29.7 30.2 57.4 56.2 74.8l5.4 3.6-4.4 1.1c-35.8 9.1-64.3 21.8-88.9 39.3-11.2 8-30.3 27.2-37 37.1-14 20.8-20.9 42.8-19.8 62.8.3 5.9 1.1 9.5 2.7 12.6 13.5 26.1 66 43.7 155.1 51.8 23.9 2.1 84.2 3 110 1.5 90-5.2 151-20.9 172.8-44.5 7.1-7.7 9.4-13.9 9.3-24.9-.3-29.2-13.4-56.4-39.4-81.4-24.3-23.4-56.6-40.6-97-51.7-6.5-1.8-11.9-3.5-12-3.8-.1-.3 3.4-3.2 7.8-6.5 14.8-11 25-21.7 35.2-36.8 8.9-13.2 17.2-32.9 20.8-49.5 2.2-10.2 3.1-37 1.6-47.9-7.2-50.7-40.7-94-87.5-113.1-23.7-9.7-51.1-13.2-74.7-9.5zM267 50c27.8 3 52.7 15.2 72 35.6 28.8 30.3 38.3 74.1 24.9 113.9-5.5 16.2-13.3 28.8-26.2 42.2-34.4 35.7-86.6 44.9-131.3 23.3-42.7-20.7-68.4-66.4-63.5-113 5.7-53.9 47.9-96.4 101.3-102 10.6-1.1 12.3-1.1 22.8 0zm10.2 257c95.6 6.5 170.1 53.9 174.5 111l.6 7.6-3.7 3.2c-14.4 12.6-62 25-118.1 30.6-48.2 4.9-109.8 4.5-158.5-1-49.4-5.5-95.4-18.1-108.5-29.5-4.1-3.7-4.4-6.5-1.9-18.7 12.1-58.5 93-102.4 191.6-104.1 4.7 0 15.5.4 24 .9z" fill="#5f6368"></path>
  </symbol>
</svg>

<svg>
  <use xlink:href="#add-accaunt"></use>
</svg><svg>
  <use xlink:href="#add"></use>
</svg><svg>
  <use xlink:href="#addlink"></use>
</svg><svg>
  <use xlink:href="#archive"></use>
</svg><svg>
  <use xlink:href="#back"></use>
</svg><svg>
  <use xlink:href="#basket"></use>
</svg><svg>
  <use xlink:href="#box"></use>
</svg><svg>
  <use xlink:href="#burger"></use>
</svg><svg>
  <use xlink:href="#cloud"></use>
</svg><svg>
  <use xlink:href="#color-picer"></use>
</svg><svg>
  <use xlink:href="#default-color"></use>
</svg><svg>
  <use xlink:href="#delete-forever"></use>
</svg><svg>
  <use xlink:href="#delete"></use>
</svg><svg>
  <use xlink:href="#done"></use>
</svg><svg>
  <use xlink:href="#dowland"></use>
</svg><svg>
  <use xlink:href="#edit-bordered"></use>
</svg><svg>
  <use xlink:href="#edit"></use>
</svg><svg>
  <use xlink:href="#error"></use>
</svg><svg>
  <use xlink:href="#exit"></use>
</svg><svg>
  <use xlink:href="#filled-label"></use>
</svg><svg>
  <use xlink:href="#label"></use>
</svg><svg>
  <use xlink:href="#grid"></use>
</svg><svg>
  <use xlink:href="#grid2"></use>
</svg><svg>
  <use xlink:href="#grid3"></use>
</svg><svg>
  <use xlink:href="#grid4"></use>
</svg><svg>
  <use xlink:href="#img"></use>
</svg><svg>
  <use xlink:href="#labels"></use>
</svg><svg>
  <use xlink:href="#link"></use>
</svg><svg>
  <use xlink:href="#loading"></use>
</svg><svg>
  <use xlink:href="#notes"></use>
</svg><svg>
  <use xlink:href="#notification-add"></use>
</svg><svg>
  <use xlink:href="#notification"></use>
</svg><svg>
  <use xlink:href="#other"></use>
</svg><svg>
  <use xlink:href="#pen"></use>
</svg><svg>
  <use xlink:href="#picture"></use>
</svg><svg>
  <use xlink:href="#pin-black"></use>
</svg><svg>
  <use xlink:href="#pin"></use>
</svg><svg>
  <use xlink:href="#remove"></use>
</svg><svg>
  <use xlink:href="#restore"></use>
</svg><svg>
  <use xlink:href="#search"></use>
</svg><svg>
  <use xlink:href="#setting"></use>
</svg><svg>
  <use xlink:href="#success"></use>
</svg><svg>
  <use xlink:href="#user-add"></use>
</svg><svg>
  <use xlink:href="#user"></use>
</svg>
