<?xml version="1.0" standalone="no" ?>
<!DOCTYPE svg PUBLIC "-//W3C//DTD SVG 20010904//EN"
  "http://www.w3.org/TR/2001/REC-SVG-20010904/DTD/svg10.dtd">
<svg
  version="1.0"
  xmlns="http://www.w3.org/2000/svg"
  width="980.000000pt"
  height="848.000000pt"
  viewBox="0 0 980.000000 848.000000"
  preserveAspectRatio="xMidYMid meet"
>

<g
    transform="translate(0.000000,848.000000) scale(0.100000,-0.100000)"
    fill="#5f6368"
    stroke="none"
  >
<path
      d="M5176 8454 c-280 -43 -619 -154 -890 -291 -333 -167 -690 -445 -904
-704 -43 -52 -81 -89 -96 -93 -17 -4 -81 12 -195 49 -235 76 -314 88 -531 82
-153 -4 -190 -8 -290 -35 -427 -111 -774 -389 -973 -780 -105 -205 -147 -358
-156 -566 l-6 -139 -111 -76 c-206 -142 -351 -272 -499 -451 -229 -277 -419
-654 -486 -965 -46 -218 -51 -641 -9 -838 173 -814 853 -1489 1662 -1651 110
-22 216 -36 388 -49 54 -5 56 -4 99 40 73 76 89 143 49 203 -43 63 -61 69
-241 90 -287 34 -470 83 -684 185 -428 203 -747 569 -897 1027 -64 196 -81
306 -81 543 0 220 7 279 52 460 85 343 265 644 544 910 153 145 345 279 483
334 l53 22 7 190 c11 285 44 445 127 611 139 278 402 490 706 567 167 43 401
49 565 15 324 -66 641 -323 788 -637 54 -115 78 -211 93 -374 15 -159 32 -205
87 -235 52 -27 128 -24 170 7 66 49 74 72 67 200 -19 357 -163 677 -433 964
-42 45 -74 87 -71 94 11 29 233 271 317 345 494 437 1111 660 1770 639 642
-20 1198 -267 1651 -733 302 -311 504 -668 614 -1087 30 -113 75 -357 75 -408
0 -14 -29 -17 -232 -23 -306 -9 -421 -21 -478 -49 -78 -38 -112 -134 -75 -212
15 -30 31 -43 80 -61 11 -4 198 -10 415 -15 422 -8 498 -15 640 -64 93 -32
283 -123 370 -177 425 -266 710 -734 750 -1231 27 -322 -22 -621 -145 -882
-204 -436 -582 -746 -1060 -868 -121 -31 -138 -34 -326 -56 -171 -21 -203 -35
-237 -101 -38 -74 -11 -151 72 -204 46 -30 81 -32 234 -15 620 67 1178 416
1503 939 269 434 358 916 258 1404 -42 204 -140 445 -257 633 -242 391 -647
723 -1047 859 -60 20 -114 40 -118 44 -5 4 -15 61 -23 126 -80 648 -360 1217
-832 1692 -233 233 -472 407 -747 542 -291 144 -587 233 -859 259 -156 16
-590 12 -700 -5z"
    />
<path
      d="M4656 4195 c-791 -181 -1395 -732 -1630 -1487 -46 -146 -64 -253 -78
-465 -25 -376 30 -672 186 -998 220 -460 580 -824 1026 -1039 153 -73 261
-113 435 -159 l120 -32 345 0 345 0 136 37 c572 155 1035 497 1335 988 98 162
194 385 238 558 49 190 72 449 56 655 -23 306 -76 508 -200 762 -271 552 -767
972 -1345 1140 -150 43 -267 56 -575 60 -276 5 -288 4 -394 -20z m578 -295
c389 -37 719 -175 1003 -419 232 -199 438 -511 536 -811 58 -179 62 -213 62
-565 0 -355 -3 -381 -72 -580 -188 -543 -591 -937 -1147 -1120 -196 -65 -317
-79 -621 -72 -265 6 -324 15 -500 73 -387 127 -711 369 -930 694 -114 169
-221 419 -259 601 -42 208 -47 618 -8 794 108 486 392 891 804 1147 327 203
732 296 1132 258z"
    />
<path
      d="M5984 3066 c-16 -7 -46 -32 -65 -54 -48 -56 -289 -395 -624 -877
-153 -220 -285 -408 -294 -417 -15 -15 -34 -2 -266 189 -381 312 -438 353
-487 353 -86 0 -168 -80 -168 -162 0 -48 35 -93 147 -190 263 -227 677 -555
750 -592 71 -36 108 -16 205 111 279 366 922 1294 981 1415 42 87 44 112 14
157 -27 41 -96 81 -138 81 -13 -1 -38 -7 -55 -14z"
    />
</g>
</svg>
