<?xml version="1.0" standalone="no" ?>
<!DOCTYPE svg PUBLIC "-//W3C//DTD SVG 20010904//EN"
  "http://www.w3.org/TR/2001/REC-SVG-20010904/DTD/svg10.dtd">
<svg
  version="1.0"
  xmlns="http://www.w3.org/2000/svg"
  width="225.000000pt"
  height="225.000000pt"
  viewBox="0 0 225.000000 225.000000"
  preserveAspectRatio="xMidYMid meet"
>

<g
    transform="translate(0.000000,225.000000) scale(0.100000,-0.100000)"
    fill="#5f6368"
    stroke="none"
  >
<path
      d="M405 1845 c-24 -23 -25 -29 -25 -159 l0 -134 32 -27 c31 -26 33 -26
159 -23 174 4 173 3 177 177 3 126 3 128 -23 159 l-27 32 -134 0 c-130 0 -136
-1 -159 -25z"
    />
<path
      d="M965 1844 c-24 -26 -25 -33 -25 -156 l0 -130 29 -29 c29 -29 29 -29
156 -29 127 0 127 0 156 29 l29 29 0 130 c0 123 -1 130 -25 156 -24 26 -26 26
-160 26 -134 0 -136 0 -160 -26z"
    />
<path
      d="M1525 1838 c-26 -31 -26 -33 -23 -159 4 -174 3 -173 177 -177 126 -3
128 -3 159 23 l32 27 0 134 c0 130 -1 136 -25 159 -23 24 -29 25 -159 25
l-134 0 -27 -32z"
    />
<path
      d="M406 1285 c-26 -24 -26 -26 -26 -160 0 -134 0 -136 26 -160 26 -24
33 -25 156 -25 l130 0 29 29 c29 29 29 29 29 156 0 127 0 127 -29 156 l-29 29
-130 0 c-123 0 -130 -1 -156 -25z"
    />
<path
      d="M969 1281 c-29 -29 -29 -29 -29 -156 0 -127 0 -127 29 -156 29 -29
29 -29 156 -29 127 0 127 0 156 29 29 29 29 29 29 156 0 127 0 127 -29 156
-29 29 -29 29 -156 29 -127 0 -127 0 -156 -29z"
    />
<path
      d="M1529 1281 c-29 -29 -29 -29 -29 -156 0 -127 0 -127 29 -156 l29 -29
130 0 c123 0 130 1 156 25 26 24 26 26 26 160 0 134 0 136 -26 160 -26 24 -33
25 -156 25 l-130 0 -29 -29z"
    />
<path
      d="M412 725 l-32 -27 0 -134 c0 -130 1 -136 25 -159 23 -24 29 -25 159
-25 l134 0 27 32 c26 31 26 33 23 159 -4 174 -3 173 -177 177 -126 3 -128 3
-159 -23z"
    />
<path
      d="M969 721 l-29 -29 0 -130 c0 -123 1 -130 25 -156 24 -26 26 -26 160
-26 134 0 136 0 160 26 24 26 25 33 25 156 l0 130 -29 29 c-29 29 -29 29 -156
29 -127 0 -127 0 -156 -29z"
    />
<path
      d="M1550 737 c-41 -21 -50 -52 -50 -179 0 -111 1 -118 26 -147 l26 -31
134 0 c130 0 136 1 159 25 24 23 25 29 25 159 l0 134 -31 26 c-29 25 -36 26
-147 26 -74 0 -126 -5 -142 -13z"
    />
</g>
</svg>
