<?xml version="1.0" standalone="no" ?>
<!DOCTYPE svg PUBLIC "-//W3C//DTD SVG 20010904//EN"
  "http://www.w3.org/TR/2001/REC-SVG-20010904/DTD/svg10.dtd">
<svg
  version="1.0"
  xmlns="http://www.w3.org/2000/svg"
  width="512.000000pt"
  height="512.000000pt"
  viewBox="0 0 512.000000 512.000000"
  preserveAspectRatio="xMidYMid meet"
>

<g
    transform="translate(0.000000,512.000000) scale(0.100000,-0.100000)"
    fill="#5f6368"
    stroke="none"
  >
<path
      d="M2359 4905 c-222 -35 -402 -103 -578 -220 -347 -229 -562 -559 -632
-967 -18 -103 -20 -148 -16 -278 6 -160 21 -247 64 -385 94 -297 302 -574 562
-748 l54 -36 -44 -11 c-358 -91 -643 -218 -889 -393 -112 -80 -303 -272 -370
-371 -140 -208 -209 -428 -198 -628 3 -59 11 -95 27 -126 135 -261 660 -437
1551 -518 239 -21 842 -30 1100 -15 900 52 1510 209 1728 445 71 77 94 139 93
249 -3 292 -134 564 -394 814 -243 234 -566 406 -970 517 -65 18 -119 35 -120
38 -1 3 34 32 78 65 148 110 250 217 352 368 89 132 172 329 208 495 22 102
31 370 16 479 -72 507 -407 940 -875 1131 -237 97 -511 132 -747 95z m311
-285 c278 -30 527 -152 720 -356 288 -303 383 -741 249 -1139 -55 -162 -133
-288 -262 -422 -344 -357 -866 -449 -1313 -233 -427 207 -684 664 -635 1130
57 539 479 964 1013 1020 106 11 123 11 228 0z m102 -2570 c956 -65 1701 -539
1745 -1110 l6 -76 -37 -32 c-144 -126 -620 -250 -1181 -306 -482 -49 -1098
-45 -1585 10 -494 55 -954 181 -1085 295 -41 37 -44 65 -19 187 121 585 930
1024 1916 1041 47 0 155 -4 240 -9z"
    />
</g>
</svg>
